<svg width="16" height="21" viewBox="0 0 16 21" fill="none" xmlns="http://www.w3.org/2000/svg">
<path d="M12.5834 13.9745V20.2738C12.5834 20.3549 12.5619 20.4346 12.5211 20.5046C12.4803 20.5747 12.4216 20.6327 12.3511 20.6727C12.2805 20.7126 12.2006 20.7332 12.1195 20.7322C12.0384 20.7312 11.9591 20.7087 11.8895 20.6671L8.00008 18.3332L4.11067 20.6671C4.04104 20.7088 3.96158 20.7313 3.88041 20.7322C3.79925 20.7332 3.71928 20.7125 3.6487 20.6724C3.57812 20.6323 3.51946 20.5742 3.4787 20.504C3.43795 20.4338 3.41657 20.3541 3.41675 20.2729V13.9754C2.23072 13.0258 1.36891 11.7313 0.950419 10.2707C0.53193 8.81016 0.577424 7.25567 1.08061 5.82208C1.58381 4.38849 2.51985 3.14658 3.75938 2.26798C4.99892 1.38939 6.48075 0.91748 8.00008 0.91748C9.51942 0.91748 11.0012 1.38939 12.2408 2.26798C13.4803 3.14658 14.4164 4.38849 14.9195 5.82208C15.4227 7.25567 15.4682 8.81016 15.0497 10.2707C14.6313 11.7313 13.7694 13.0258 12.5834 13.9754V13.9745ZM5.25008 15.0497V17.8456L8.00008 16.1956L10.7501 17.8456V15.0497C9.87636 15.4031 8.94256 15.5843 8.00008 15.5832C7.0576 15.5843 6.12381 15.4031 5.25008 15.0497ZM8.00008 13.7499C9.45877 13.7499 10.8577 13.1704 11.8892 12.139C12.9206 11.1075 13.5001 9.70858 13.5001 8.24989C13.5001 6.7912 12.9206 5.39226 11.8892 4.36081C10.8577 3.32936 9.45877 2.7499 8.00008 2.7499C6.54139 2.7499 5.14244 3.32936 4.11099 4.36081C3.07954 5.39226 2.50008 6.7912 2.50008 8.24989C2.50008 9.70858 3.07954 11.1075 4.11099 12.139C5.14244 13.1704 6.54139 13.7499 8.00008 13.7499Z" fill="black"/>
</svg>
