<svg width="18" height="19" viewBox="0 0 18 19" fill="none" xmlns="http://www.w3.org/2000/svg">
<path d="M15.4167 16.4169V7.98264L9 2.9208L2.58333 7.98264V16.4169H15.4167ZM17.25 17.3336C17.25 17.5767 17.1534 17.8098 16.9815 17.9817C16.8096 18.1536 16.5764 18.2502 16.3333 18.2502H1.66667C1.42355 18.2502 1.19039 18.1536 1.01849 17.9817C0.846577 17.8098 0.75 17.5767 0.75 17.3336V7.53805C0.749945 7.39959 0.781258 7.26291 0.841587 7.13829C0.901917 7.01366 0.989696 6.90432 1.09833 6.81847L8.43167 1.03339C8.5935 0.905502 8.79374 0.835938 9 0.835938C9.20626 0.835938 9.4065 0.905502 9.56833 1.03339L16.9017 6.81755C17.0104 6.90349 17.0983 7.01298 17.1586 7.13778C17.2189 7.26258 17.2502 7.39944 17.25 7.53805V17.3336ZM4.41667 10.0002H6.25C6.25 10.7296 6.53973 11.429 7.05546 11.9448C7.57118 12.4605 8.27065 12.7502 9 12.7502C9.72935 12.7502 10.4288 12.4605 10.9445 11.9448C11.4603 11.429 11.75 10.7296 11.75 10.0002H13.5833C13.5833 11.2158 13.1004 12.3816 12.2409 13.2411C11.3814 14.1007 10.2156 14.5836 9 14.5836C7.78442 14.5836 6.61864 14.1007 5.75909 13.2411C4.89955 12.3816 4.41667 11.2158 4.41667 10.0002Z" fill="#00B533"/>
</svg>
