<svg width="19" height="20" viewBox="0 0 19 20" fill="none" xmlns="http://www.w3.org/2000/svg">
<path d="M15.4167 6.3335H17.25C17.4931 6.3335 17.7263 6.43007 17.8982 6.60198C18.0701 6.77389 18.1667 7.00705 18.1667 7.25016V18.2502C18.1667 18.4933 18.0701 18.7264 17.8982 18.8983C17.7263 19.0703 17.4931 19.1668 17.25 19.1668H9.91667C9.67355 19.1668 9.44039 19.0703 9.26849 18.8983C9.09658 18.7264 9 18.4933 9 18.2502V17.3335H1.66667C1.42355 17.3335 1.19039 17.2369 1.01849 17.065C0.846577 16.8931 0.75 16.6599 0.75 16.4168V1.75016C0.75 1.50705 0.846577 1.27389 1.01849 1.10198C1.19039 0.930073 1.42355 0.833496 1.66667 0.833496H14.5C14.7431 0.833496 14.9763 0.930073 15.1482 1.10198C15.3201 1.27389 15.4167 1.50705 15.4167 1.75016V6.3335ZM13.5833 6.3335V2.66683H2.58333V15.5002H9V7.25016C9 7.00705 9.09658 6.77389 9.26849 6.60198C9.44039 6.43007 9.67355 6.3335 9.91667 6.3335H13.5833ZM10.8333 8.16683V17.3335H16.3333V8.16683H10.8333Z" fill="black"/>
</svg>
