<svg width="16" height="17" viewBox="0 0 16 17" fill="none" xmlns="http://www.w3.org/2000/svg">
<path fill-rule="evenodd" clip-rule="evenodd" d="M8.3871 0.982107L14.9654 4.92861C15.0785 4.99634 15.1477 5.1185 15.1477 5.25036C15.1477 5.38221 15.0785 5.50438 14.9654 5.57211L8.0016 9.75036L1.03785 5.57211C0.924718 5.50438 0.855469 5.38221 0.855469 5.25036C0.855469 5.1185 0.924718 4.99634 1.03785 4.92861L7.61535 0.982107C7.85305 0.839298 8.15015 0.839298 8.38785 0.982107H8.3871ZM14.9654 8.41611L14.0639 7.87536L8.0016 11.5129L1.93935 7.87536L1.03785 8.41611C0.924718 8.48383 0.855469 8.606 0.855469 8.73786C0.855469 8.86971 0.924718 8.99188 1.03785 9.05961L8.0016 13.2379L14.9654 9.05961C15.0785 8.99188 15.1477 8.86971 15.1477 8.73786C15.1477 8.606 15.0785 8.48383 14.9654 8.41611ZM14.9654 11.9411L14.0639 11.4004L8.0016 15.0379L1.93935 11.4004L1.03785 11.9411C0.924718 12.0088 0.855469 12.131 0.855469 12.2629C0.855469 12.3947 0.924718 12.5169 1.03785 12.5846L7.61535 16.5311C7.85305 16.6739 8.15015 16.6739 8.38785 16.5311L14.9654 12.5846C15.0785 12.5169 15.1477 12.3947 15.1477 12.2629C15.1477 12.131 15.0785 12.0088 14.9654 11.9411ZM3.41685 5.25036L8.0016 2.49936L12.5864 5.25036L8.0016 8.00136L3.41685 5.25036Z" fill="green"/>
</svg>
