<svg width="22" height="22" viewBox="0 0 22 22" fill="none" xmlns="http://www.w3.org/2000/svg">
<path fill-rule="evenodd" clip-rule="evenodd" d="M0.508837 8.28709C0.285671 9.15484 0.166504 10.0627 0.166504 10.9998C0.166504 11.9379 0.285671 12.8458 0.507754 13.7113C1.72866 13.6465 2.88267 14.2723 3.4943 15.3309C4.10593 16.3896 4.07169 17.7019 3.40567 18.7272C4.71536 20.0157 6.33153 20.9496 8.10192 21.4409C8.65635 20.3509 9.77578 19.6643 10.9988 19.6643C12.2217 19.6643 13.3412 20.3509 13.8956 21.4409C15.666 20.9496 17.2822 20.0157 18.5918 18.7272C17.9264 17.7019 17.8925 16.39 18.5041 15.3318C19.1156 14.2735 20.2692 13.6478 21.4898 13.7124C21.7129 12.8447 21.8321 11.9368 21.8321 10.9998C21.8321 10.0627 21.7129 9.15484 21.4898 8.28818C20.2689 8.35305 19.1148 7.72725 18.5032 6.66861C17.8916 5.60997 17.9258 4.29764 18.5918 3.27234C17.2822 1.98379 15.666 1.04988 13.8956 0.558594C13.3412 1.64867 12.2217 2.33521 10.9988 2.33521C9.77578 2.33521 8.65635 1.64867 8.10192 0.558594C6.33153 1.04988 4.71536 1.98379 3.40567 3.27234C4.07092 4.29744 4.10491 5.60906 3.49364 6.66723C2.88238 7.72541 1.72919 8.35124 0.508837 8.28709ZM5.98184 18.0674C6.24834 16.7913 6.05334 15.4317 5.37084 14.2498H5.37192C4.70581 13.0951 3.6368 12.2271 2.37 11.8123C2.3199 11.2718 2.3199 10.7278 2.37 10.1873C3.6364 9.77218 4.70499 8.90419 5.37084 7.74976C6.03787 6.59593 6.25545 5.23647 5.98184 3.93209C6.42372 3.61785 6.89415 3.34582 7.38692 3.11959C8.37998 4.00919 9.66659 4.50069 10.9998 4.49976C12.3327 4.50042 13.6189 4.00894 14.6117 3.11959C15.1044 3.34581 15.5749 3.61784 16.0168 3.93209C15.7431 5.23647 15.9607 6.59593 16.6278 7.74976C17.2939 8.9044 18.3629 9.77241 19.6297 10.1873C19.6798 10.7278 19.6798 11.2718 19.6297 11.8123C18.3633 12.2273 17.2947 13.0953 16.6288 14.2498C15.9618 15.4036 15.7442 16.7631 16.0178 18.0674C15.5758 18.3816 15.1057 18.6535 14.6128 18.8799C13.641 18.01 12.3648 17.4998 10.9998 17.4998C9.66659 17.4988 8.37998 17.9903 7.38692 18.8799C6.894 18.6535 6.42384 18.3816 5.98184 18.0674ZM10.9998 14.2498C9.20491 14.2498 7.74984 12.7947 7.74984 10.9998C7.74984 9.20483 9.20491 7.74976 10.9998 7.74976C12.7948 7.74976 14.2498 9.20483 14.2498 10.9998C14.2498 12.7947 12.7948 14.2498 10.9998 14.2498ZM12.0832 10.9998C12.0832 11.5981 11.5981 12.0831 10.9998 12.0831C10.4015 12.0831 9.9165 11.5981 9.9165 10.9998C9.9165 10.4015 10.4015 9.91643 10.9998 9.91643C11.5981 9.91643 12.0832 10.4015 12.0832 10.9998Z" fill="#2F2F2F"/>
</svg>
